# xmcd
# 
# Track frame offsets:
#     150
#     13150
#     26825
#     48475
#     63250
#     79500
#     92775
#     105412
#     117175
#     130425
#     150062
#     167325
#     183762
#     198775
#     214087
#     228037
# 
# Disc length: 3222
# 
# Revision: 3
# Processed by: cddbd v1.5.2PL0 Copyright (c) Steve Scherf et al.
# Submitted via: BonkEnc v1.0.8
# 
DISCID=b90c9410
DTITLE=Various Artist - The Country Hall of Fame
DYEAR=0
DGENRE=Country
TTITLE0=Lynn Anderson - Rose Garden
TTITLE1=Merle Haggard - that's The Way Love Goes
TTITLE2=Willie Nelson - City Of New Orleans
TTITLE3=Rodney Crowell - I Couldn't Hurt You If I Tried
TTITLE4=The Charlie Daniels Band - The Devil Went Down to Georgia
TTITLE5=Charlie Rich - Behind Closed Doors
TTITLE6=Johnny Horton - North To Alaska
TTITLE7=Johnny Paycheck - Take This Job And shove It
TTITLE8=Tammy Wynette - D.I.V.O.R.C.E.
TTITLE9=Marty Robbins - El Paso
TTITLE10=Ricky Scaggs - Country Boy
TTITLE11=Johnny Cash - A Boy Named Sue
TTITLE12=Mary Chapin-Carpenter - Passionate Kisses
TTITLE13=Lacy J. Dalton - Takin' It Easy
TTITLE14=George Jones - The Grand Tour
TTITLE15=Tanya Tucker - Blood Red And Goin' Down
EXTD=ID3G:   2
EXTT0=
EXTT1=
EXTT2=
EXTT3=
EXTT4=
EXTT5=
EXTT6=
EXTT7=
EXTT8=
EXTT9=
EXTT10=
EXTT11=
EXTT12=
EXTT13=
EXTT14=
EXTT15=
PLAYORDER=
